<svg xmlns="http://www.w3.org/2000/svg" width="200" height="200" viewBox="0 0 200 200">
  <defs>
    <linearGradient id="grad1" x1="0%" y1="0%" x2="100%" y2="100%">
      <stop offset="0%" style="stop-color:#9C56E2;stop-opacity:1" />
      <stop offset="100%" style="stop-color:#D56EFF;stop-opacity:1" />
    </linearGradient>
  </defs>
  <circle cx="100" cy="100" r="90" fill="url(#grad1)" />
  <circle cx="100" cy="100" r="85" stroke="white" stroke-width="4" fill="none" opacity="0.3" />
  
  <!-- Analytics/Dashboard elements -->
  <g transform="translate(50, 60)">
    <!-- Chart bars -->
    <rect x="0" y="40" width="15" height="40" rx="2" fill="white" opacity="0.8" />
    <rect x="25" y="20" width="15" height="60" rx="2" fill="white" opacity="0.8" />
    <rect x="50" y="30" width="15" height="50" rx="2" fill="white" opacity="0.8" />
    <rect x="75" y="10" width="15" height="70" rx="2" fill="white" opacity="0.8" />
    <rect x="100" y="50" width="15" height="30" rx="2" fill="white" opacity="0.8" />
    
    <!-- X and Y axis -->
    <line x1="0" y1="85" x2="115" y2="85" stroke="white" stroke-width="2" />
    <line x1="0" y1="85" x2="0" y2="0" stroke="white" stroke-width="2" />
    
    <!-- Insight lightbulb -->
    <circle cx="100" cy="20" r="15" fill="white" opacity="0.9" />
    <path d="M100,10 L100,15 M95,20 L105,20 M100,25 L100,30" stroke="#9C56E2" stroke-width="2" />
    <path d="M95,15 L105,25 M95,25 L105,15" stroke="#9C56E2" stroke-width="2" />
  </g>
  
  <!-- Recommendation elements -->
  <g transform="translate(70, 160)">
    <rect x="0" y="0" width="60" height="8" rx="4" fill="white" opacity="0.7" />
    <rect x="10" y="12" width="40" height="8" rx="4" fill="white" opacity="0.5" />
  </g>
</svg> 